<svg xmlns="http://www.w3.org/2000/svg" xml:space="preserve" width="20" height="20" style="shape-rendering:geometricPrecision;text-rendering:geometricPrecision;image-rendering:optimizeQuality;fill-rule:evenodd;clip-rule:evenodd" viewBox="0 0 20 20.011"><path d="M12.999 1v4M7.957 19.011H3.133A2.138 2.138 0 0 1 1 16.877V5.145A2.14 2.14 0 0 1 3.133 3.01h13.734A2.14 2.14 0 0 1 19 5.145v2.82m-8 8.133 2.43 2.913L19 13.01M7.001 1v4" style="fill:none;stroke:#fff;stroke-width:2;stroke-linecap:round;stroke-linejoin:round;stroke-miterlimit:22.9256"/><path d="M6 12.011a1 1 0 1 1 0 2 1 1 0 0 1 0-2zm8-4a1 1 0 1 1 0 2 1 1 0 0 1 0-2zm-4 0a1 1 0 1 1 0 2 1 1 0 0 1 0-2zm-4 0a1 1 0 1 1 0 2 1 1 0 0 1 0-2z" style="fill:#fff"/></svg>
