<svg xmlns="http://www.w3.org/2000/svg" xml:space="preserve" width="20" height="17" style="shape-rendering:geometricPrecision;text-rendering:geometricPrecision;image-rendering:optimizeQuality;fill-rule:evenodd;clip-rule:evenodd" viewBox="0 0 20 17.001"><path d="M10.998 6.499a2 2 0 1 1-.001 4.001 2 2 0 0 1 .001-4.001z" style="fill:#fff"/><path d="M10.998 8.5c-.37.418-.752.842-1.145 1.266-1.809 1.956-3.557 3.646-5.021 4.894-4.008 3.417-4.897 1.676-2.561-1.935m4.593.091c-1.271-1.133-2.185-2.24-2.827-3.331-3.839-6.523 3.969-10.82 6.961-5.773 2.992-5.047 10.8-.751 6.961 5.773-1.069 1.817-2.952 3.731-5.845 5.61-.836.541-1.397.541-2.232 0" style="fill:none;stroke:#fff;stroke-width:2;stroke-linecap:round;stroke-linejoin:round;stroke-miterlimit:22.9256"/></svg>
