<svg xmlns="http://www.w3.org/2000/svg" xml:space="preserve" width="131" height="23" style="shape-rendering:geometricPrecision;text-rendering:geometricPrecision;image-rendering:optimizeQuality;fill-rule:evenodd;clip-rule:evenodd" viewBox="0 0 131 22.814"><defs><style>.fil0{fill:#fff;fill-rule:nonzero}</style></defs><g id="Layer_x0020_1"><g id="_2672697056864"><path class="fil0" d="M2.939 10.626h1.167c1.149 0 1.687-.036 2.376-1.008l2.689-3.794c.202-.286.358-.407.72-.407h1.435c.387 0 .718.203.894.547a.984.984 0 0 1-.081 1.045l-2.393 3.305c-.477.656-.975 1.168-1.487 1.536.656.368 1.221.883 1.704 1.536l2.67 3.609a.983.983 0 0 1 .089 1.049.982.982 0 0 1-.896.551h-1.431c-.346 0-.534-.046-.744-.335l-2.929-4.033c-.645-.889-1.351-1.008-2.401-1.008H2.939v3.373a2.006 2.006 0 0 1-2.003 2.003H.059c-.369 0-.553-.176-.553-.528V1.119c0-.352.184-.528.553-.528h.877c1.104 0 2.003.9 2.003 2.003v8.032zM23.144 5.417c3.051 0 4.153.82 4.153 3.936v2.281c0 .974-.395 1.369-1.368 1.369h-9.11c0 2.084.355 2.711 2.641 2.711h6.997c.288 0 .432.145.432.433v.445a2.006 2.006 0 0 1-2.003 2.003h-5.763c-3.69 0-5.713-.848-5.713-4.849v-3.457c0-3.976 2.027-4.872 5.713-4.872h4.021zm-6.325 5.448h6.709c.273 0 .409-.136.409-.407V9.449c0-1.064-.436-1.368-1.465-1.368H19.46c-1.656 0-2.641.299-2.641 2.136v.648zM36.318 5.417c3.79 0 5.713.978 5.713 4.872v6.303c0 1.104-.9 2.003-2.003 2.003h-8.187c-2.54 0-3.697-.789-3.697-3.408v-1.153c0-2.465 1.414-3.144 3.697-3.144h6.758c0-1.88-.257-2.593-2.617-2.593H28.96c-.287 0-.432-.144-.432-.431V7.42c0-1.103.9-2.003 2.003-2.003h5.787zm1.584 10.537c.571 0 .697-.288.697-.815v-2.113h-5.774c-.836 0-1.344.279-1.344 1.176v.505c0 .939.44 1.247 1.344 1.247h5.077zM51.052 5.417c3.685 0 5.714.899 5.714 4.872v7.303c0 .552-.451 1.003-1.003 1.003h-.403a2.007 2.007 0 0 1-2.003-2.003v-5.486c0-1.984-.399-2.641-2.473-2.641h-1.956c-2.041 0-2.617.62-2.617 2.641v6.486c0 .552-.451 1.003-1.003 1.003h-.427a2.007 2.007 0 0 1-2.003-2.003v-6.303c0-3.976 2.028-4.872 5.713-4.872h2.461zM65.786 5.417c3.707 0 5.714.866 5.714 4.849v8.242c0 4.001-1.976 4.897-5.714 4.897h-7.045c-.287 0-.433-.144-.433-.431v-2.017c0-.288.145-.432.433-.432h6.709c2.074 0 2.641-.61 2.641-2.665v-.129h-4.765c-3.712 0-5.713-.907-5.713-4.897v-2.52c0-3.991 2.001-4.897 5.713-4.897h2.46zm-4.741 7.393c0 1.878.855 2.257 2.617 2.257h4.429v-4.49c0-1.914-.839-2.328-2.641-2.328h-1.788c-1.757 0-2.617.378-2.617 2.257v2.304zM115.195 7.769c0 .288-.144.432-.432.432h-8.222c-.779 0-1.32.213-1.32 1.08v.36c0 .834.59 1.033 1.32 1.033h5.485c2.232 0 3.745.791 3.745 3.216v1.345c0 2.505-1.391 3.36-3.768 3.36h-8.116a2.007 2.007 0 0 1-2.003-2.003v-.349c0-.288.144-.432.432-.432h8.774c.859 0 1.345-.222 1.345-1.152v-.649c0-.832-.632-1.008-1.345-1.008h-5.461c-2.271 0-3.745-.784-3.745-3.24V8.705c0-2.463 1.462-3.288 3.769-3.288h7.539c1.103 0 2.003.899 2.003 2.003v.349zM95.324 5.417c3.79 0 5.713.978 5.713 4.872v6.303a2.006 2.006 0 0 1-2.003 2.003h-8.187c-2.539 0-3.697-.789-3.697-3.408v-1.153c0-2.465 1.414-3.144 3.697-3.144h6.758c0-1.88-.257-2.593-2.617-2.593h-7.021c-.288 0-.433-.144-.433-.431V7.42c0-1.103.9-2.003 2.004-2.003h5.786zm1.585 10.537c.571 0 .696-.288.696-.815v-2.113h-5.774c-.836 0-1.344.279-1.344 1.176v.505c0 .939.441 1.247 1.344 1.247h5.078zM124.794 5.417c3.79 0 5.713.978 5.713 4.872v6.303c0 1.104-.9 2.003-2.004 2.003h-8.186c-2.54 0-3.697-.789-3.697-3.408v-1.153c0-2.465 1.414-3.144 3.697-3.144h6.758c0-1.88-.257-2.593-2.617-2.593h-7.022c-.287 0-.432-.144-.432-.431V7.42c0-1.103.9-2.003 2.003-2.003h5.787zm1.584 10.537c.571 0 .697-.288.697-.815v-2.113h-5.774c-.836 0-1.344.279-1.344 1.176v.505c0 .939.44 1.247 1.344 1.247h5.077zM75.779 10.626h1.167c1.148 0 1.687-.036 2.376-1.008l2.553-3.602.982 3.925-.271.373c-.477.656-.975 1.168-1.488 1.536.657.368 1.222.883 1.705 1.536l2.669 3.609a.983.983 0 0 1 .09 1.049.982.982 0 0 1-.896.551h-1.431c-.346 0-.535-.046-.744-.335l-2.929-4.033c-.645-.889-1.352-1.008-2.401-1.008h-1.382v3.373c0 1.104-.9 2.003-2.003 2.003h-.878c-.368 0-.552-.176-.552-.528V1.119c0-.352.184-.528.552-.528h.878c1.103 0 2.003.9 2.003 2.003v8.032z"/><path style="fill:#bd5ad5" d="m83.432 8.123-.705-2.822-2.822-.706 2.822-.705.705-2.822.706 2.822 2.822.705-2.822.706z"/></g></g></svg>
