<svg xmlns="http://www.w3.org/2000/svg" xml:space="preserve" width="41" height="50" style="shape-rendering:geometricPrecision;text-rendering:geometricPrecision;image-rendering:optimizeQuality;fill-rule:evenodd;clip-rule:evenodd" viewBox="0 0 41 50.513"><path d="M8.916 28.155h3.273c3.223 0 4.733-.101 6.668-2.83L26.02 15.22l2.752 11.012-.758 1.047c-1.34 1.84-2.737 3.276-4.174 4.309 1.842 1.033 3.426 2.477 4.781 4.31l7.491 10.126c.647.876.741 1.969.25 2.941a2.757 2.757 0 0 1-2.514 1.548h-4.014c-.97 0-1.499-.13-2.087-.942L19.53 38.256c-1.811-2.494-3.793-2.828-6.737-2.828H8.916v9.464a5.63 5.63 0 0 1-5.62 5.621H.834c-1.033 0-1.549-.494-1.549-1.482V1.482C-.715.494-.199 0 .834 0h2.462a5.63 5.63 0 0 1 5.62 5.621v22.534z" style="fill:#fff;fill-rule:nonzero"/><path style="fill:#bd5ad5" d="m30.389 21.131-1.98-7.917-7.917-1.979 7.917-1.98 1.98-7.917 1.979 7.917 7.917 1.98-7.917 1.979z"/></svg>
