<svg xmlns="http://www.w3.org/2000/svg" xml:space="preserve" width="100" height="90" style="shape-rendering:geometricPrecision;text-rendering:geometricPrecision;image-rendering:optimizeQuality;fill-rule:evenodd;clip-rule:evenodd" viewBox="0 0 100 90.04"><path d="M68.4 91.02H31.6c-4.83 0-8.97-2.4-11.39-6.58L1.81 52.58c-2.41-4.19-2.41-8.97 0-13.16l18.4-31.86C22.63 3.37 26.77.98 31.6.98h36.8c4.83 0 8.97 2.39 11.39 6.58l18.4 31.86c2.41 4.19 2.41 8.97 0 13.16l-18.4 31.86c-2.42 4.18-6.56 6.58-11.39 6.58z" style="fill:#2a2e3c"/><path d="m45.69 48.37 11.84-11.45v-2.96l-3.35-3.35h-8.62l-3.09 3.09v3.75h-8.81V31l8.02-8.02h16.38l8.28 8.29v8.28L54.37 51.13v5.33h-8.68v-8.09zm-.72 17.82v-3.95l2.83-2.82h4.47l2.83 2.82v3.95l-2.83 2.83H47.8l-2.83-2.83z" style="fill:#9098a8;fill-rule:nonzero"/></svg>
